# xmcd CD database file
#
# Track frame offsets:
#	150
#	13534
#	33388
#	57372
#	78347
#	99200
#	117636
#	135334
#	162871
#	184086
#	205584
#
# Disc length: 3054 seconds
#
# Revision: 0
# Processed by: cddbd v1.4PL0 Copyright (c) Steve Scherf et al.
# Submitted via: CDex 1.50
#
DISCID=830bec0b
DTITLE=BEN HARPER and TOM FREUND - Pleasure and Pain
DYEAR=1992
DGENRE=Blues
TTITLE0=Whipping Boy
TTITLE1=Jesus On The Main Line
TTITLE2=Pay The Man
TTITLE3=Quarter Of A Man
TTITLE4=Mama's Got A Girlfriend Now
TTITLE5=Angel From Montgomery
TTITLE6=Click 'Yo Heels
TTITLE7=You Should Have Come To Me
TTITLE8=Dust My Broom
TTITLE9=Sweet Home Chicago
TTITLE10=Pleasure and Pain
EXTD=YEAR: 1992
EXTT0=
EXTT1=
EXTT2=
EXTT3=
EXTT4=
EXTT5=
EXTT6=
EXTT7=
EXTT8=
EXTT9=
EXTT10=
PLAYORDER=
